<svg xmlns="http://www.w3.org/2000/svg" xmlns:xlink="http://www.w3.org/1999/xlink" width="840" height="494.2"><rect width="840" height="494.2" rx="5" ry="5" class="a"/><svg y="0%" x="0%"><circle cx="20" cy="20" r="6" fill="#ff5f58"/><circle cx="40" cy="20" r="6" fill="#ffbd2e"/><circle cx="60" cy="20" r="6" fill="#18c132"/></svg><svg height="434.2" viewBox="0 0 80 43.42" width="800" x="15" xmlns="http://www.w3.org/2000/svg" xmlns:xlink="http://www.w3.org/1999/xlink" y="50"><style>@keyframes i{0%{transform:translateX(0)}.1%{transform:translateX(-80px)}25.9%{transform:translateX(-160px)}27.1%{transform:translateX(-240px)}29%{transform:translateX(-320px)}30.4%{transform:translateX(-400px)}31.4%{transform:translateX(-480px)}33.4%{transform:translateX(-560px)}35.6%{transform:translateX(-640px)}36.9%{transform:translateX(-720px)}37.8%{transform:translateX(-800px)}43.3%{transform:translateX(-880px)}47.6%{transform:translateX(-1120px)}52.5%{transform:translateX(-1360px)}55.5%{transform:translateX(-1600px)}58.7%{transform:translateX(-1760px)}67.7%{transform:translateX(-2080px)}67.8%{transform:translateX(-2160px)}to{transform:translateX(-2240px)}}.a{fill:#282d35}.f{fill:#b9c0cb}</style><g font-size="1.67" font-family="Monaco,Consolas,Menlo,'Bitstream Vera Sans Mono','Powerline Symbols',monospace"><defs><symbol id="1"><text y="1.67" class="f">bash-3.2$</text></symbol><symbol id="2"><text y="1.67" class="f">bash-3.2$</text><text x="10.02" y="1.67" class="f">tmux-kill</text></symbol><symbol id="3"><text y="1.67" class="f">?</text><text x="2.004" y="1.67" class="f">Select</text><text x="9.018" y="1.67" class="f">an</text><text x="12.024" y="1.67" class="f">item:</text><text x="18.036" y="1.67" class="f">(Use</text><text x="23.046" y="1.67" class="f">arrow</text><text x="29.058" y="1.67" class="f">keys)</text></symbol><symbol id="4"><text y="1.67" class="f">❯</text><text x="2.004" y="1.67" class="f">15:</text><text x="6.012" y="1.67" class="f">1</text><text x="8.016" y="1.67" class="f">windows</text><text x="16.032" y="1.67" class="f">(created</text><text x="25.05" y="1.67" class="f">Sun</text><text x="29.058" y="1.67" class="f">Nov</text><text x="34.068" y="1.67" class="f">4</text><text x="36.072" y="1.67" class="f">12:55:06</text><text x="45.09" y="1.67" class="f">2018)</text><text x="51.102" y="1.67" class="f">[130x34]</text></symbol><symbol id="5"><text x="2.004" y="1.67" class="f">17:</text><text x="6.012" y="1.67" class="f">1</text><text x="8.016" y="1.67" class="f">windows</text><text x="16.032" y="1.67" class="f">(created</text><text x="25.05" y="1.67" class="f">Sun</text><text x="29.058" y="1.67" class="f">Nov</text><text x="34.068" y="1.67" class="f">4</text><text x="36.072" y="1.67" class="f">12:56:55</text><text x="45.09" y="1.67" class="f">2018)</text><text x="51.102" y="1.67" class="f">[130x34]</text></symbol><symbol id="6"><text x="2.004" y="1.67" class="f">18:</text><text x="6.012" y="1.67" class="f">1</text><text x="8.016" y="1.67" class="f">windows</text><text x="16.032" y="1.67" class="f">(created</text><text x="25.05" y="1.67" class="f">Sun</text><text x="29.058" y="1.67" class="f">Nov</text><text x="34.068" y="1.67" class="f">4</text><text x="36.072" y="1.67" class="f">12:59:06</text><text x="45.09" y="1.67" class="f">2018)</text><text x="51.102" y="1.67" class="f">[130x34]</text></symbol><symbol id="7"><text x="2.004" y="1.67" class="f">19:</text><text x="6.012" y="1.67" class="f">1</text><text x="8.016" y="1.67" class="f">windows</text><text x="16.032" y="1.67" class="f">(created</text><text x="25.05" y="1.67" class="f">Sun</text><text x="29.058" y="1.67" class="f">Nov</text><text x="34.068" y="1.67" class="f">4</text><text x="36.072" y="1.67" class="f">12:59:12</text><text x="45.09" y="1.67" class="f">2018)</text><text x="51.102" y="1.67" class="f">[130x34]</text></symbol><symbol id="8"><text x="2.004" y="1.67" class="f">20:</text><text x="6.012" y="1.67" class="f">1</text><text x="8.016" y="1.67" class="f">windows</text><text x="16.032" y="1.67" class="f">(created</text><text x="25.05" y="1.67" class="f">Sun</text><text x="29.058" y="1.67" class="f">Nov</text><text x="34.068" y="1.67" class="f">4</text><text x="36.072" y="1.67" class="f">12:59:30</text><text x="45.09" y="1.67" class="f">2018)</text><text x="51.102" y="1.67" class="f">[130x34]</text></symbol><symbol id="9"><text x="2.004" y="1.67" class="f">21:</text><text x="6.012" y="1.67" class="f">1</text><text x="8.016" y="1.67" class="f">windows</text><text x="16.032" y="1.67" class="f">(created</text><text x="25.05" y="1.67" class="f">Sun</text><text x="29.058" y="1.67" class="f">Nov</text><text x="34.068" y="1.67" class="f">4</text><text x="36.072" y="1.67" class="f">12:59:37</text><text x="45.09" y="1.67" class="f">2018)</text><text x="51.102" y="1.67" class="f">[130x34]</text></symbol><symbol id="10"><text x="2.004" y="1.67" class="f">borrower-dashboard-ui:</text><text x="25.05" y="1.67" class="f">1</text><text x="27.054" y="1.67" class="f">windows</text><text x="35.07" y="1.67" class="f">(created</text><text x="44.088" y="1.67" class="f">Fri</text><text x="48.096" y="1.67" class="f">Nov</text><text x="53.106" y="1.67" class="f">2</text><text x="55.11" y="1.67" class="f">10:41:41</text><text x="64.128" y="1.67" class="f">2018)</text><text x="70.14" y="1.67" class="f">[13...</text></symbol><symbol id="11"><text y="1.67" class="f">(Move</text><text x="6.012" y="1.67" class="f">up</text><text x="9.018" y="1.67" class="f">and</text><text x="13.026" y="1.67" class="f">down</text><text x="18.036" y="1.67" class="f">to</text><text x="21.042" y="1.67" class="f">reveal</text><text x="28.056" y="1.67" class="f">more</text><text x="33.066" y="1.67" class="f">choices)</text></symbol><symbol id="12"><text y="1.67" class="f">?</text><text x="2.004" y="1.67" class="f">Select</text><text x="9.018" y="1.67" class="f">an</text><text x="12.024" y="1.67" class="f">item:</text></symbol><symbol id="13"><text x="2.004" y="1.67" class="f">15:</text><text x="6.012" y="1.67" class="f">1</text><text x="8.016" y="1.67" class="f">windows</text><text x="16.032" y="1.67" class="f">(created</text><text x="25.05" y="1.67" class="f">Sun</text><text x="29.058" y="1.67" class="f">Nov</text><text x="34.068" y="1.67" class="f">4</text><text x="36.072" y="1.67" class="f">12:55:06</text><text x="45.09" y="1.67" class="f">2018)</text><text x="51.102" y="1.67" class="f">[130x34]</text></symbol><symbol id="14"><text y="1.67" class="f">❯</text><text x="2.004" y="1.67" class="f">17:</text><text x="6.012" y="1.67" class="f">1</text><text x="8.016" y="1.67" class="f">windows</text><text x="16.032" y="1.67" class="f">(created</text><text x="25.05" y="1.67" class="f">Sun</text><text x="29.058" y="1.67" class="f">Nov</text><text x="34.068" y="1.67" class="f">4</text><text x="36.072" y="1.67" class="f">12:56:55</text><text x="45.09" y="1.67" class="f">2018)</text><text x="51.102" y="1.67" class="f">[130x34]</text></symbol><symbol id="15"><text y="1.67" class="f">❯</text><text x="2.004" y="1.67" class="f">18:</text><text x="6.012" y="1.67" class="f">1</text><text x="8.016" y="1.67" class="f">windows</text><text x="16.032" y="1.67" class="f">(created</text><text x="25.05" y="1.67" class="f">Sun</text><text x="29.058" y="1.67" class="f">Nov</text><text x="34.068" y="1.67" class="f">4</text><text x="36.072" y="1.67" class="f">12:59:06</text><text x="45.09" y="1.67" class="f">2018)</text><text x="51.102" y="1.67" class="f">[130x34]</text></symbol><symbol id="16"><text y="1.67" class="f">?</text><text x="2.004" y="1.67" class="f">Select</text><text x="9.018" y="1.67" class="f">an</text><text x="12.024" y="1.67" class="f">item:</text><text x="18.036" y="1.67" class="f">17:</text><text x="22.044" y="1.67" class="f">1</text><text x="24.048" y="1.67" class="f">windows</text><text x="32.064" y="1.67" class="f">(created</text><text x="41.082" y="1.67" class="f">Sun</text><text x="45.09" y="1.67" class="f">Nov</text><text x="50.1" y="1.67" class="f">4</text><text x="52.104" y="1.67" class="f">12:56:55</text><text x="61.122" y="1.67" class="f">2018)</text><text x="67.134" y="1.67" class="f">[130x34]</text></symbol><symbol id="a"><path fill="transparent" d="M0 0h80v21H0z"/></symbol><symbol id="b"><path fill="#6f7683" d="M0 0h1.102v2.171H0z"/></symbol></defs><path class="a" d="M0 0h80v43.42H0z"/><g style="animation-duration:13.891648s;animation-iteration-count:infinite;animation-name:i;animation-timing-function:steps(1,end)"><svg width="2320"><svg><use xlink:href="#a"/><use xlink:href="#b" x="-.004"/></svg><svg x="80"><use xlink:href="#a"/><use xlink:href="#b" x="9.996"/><use xlink:href="#1"/></svg><svg x="160"><use xlink:href="#a"/><use xlink:href="#b" x="10.996"/><text y="1.67" class="f">bash-3.2$</text><text x="10.02" y="1.67" class="f">t</text></svg><svg x="240"><use xlink:href="#a"/><use xlink:href="#b" x="11.996"/><text y="1.67" class="f">bash-3.2$</text><text x="10.02" y="1.67" class="f">tm</text></svg><svg x="320"><use xlink:href="#a"/><use xlink:href="#b" x="12.996"/><text y="1.67" class="f">bash-3.2$</text><text x="10.02" y="1.67" class="f">tmu</text></svg><svg x="400"><use xlink:href="#a"/><use xlink:href="#b" x="13.996"/><text y="1.67" class="f">bash-3.2$</text><text x="10.02" y="1.67" class="f">tmux</text></svg><svg x="480"><use xlink:href="#a"/><use xlink:href="#b" x="14.996"/><text y="1.67" class="f">bash-3.2$</text><text x="10.02" y="1.67" class="f">tmux-</text></svg><svg x="560"><use xlink:href="#a"/><use xlink:href="#b" x="15.996"/><text y="1.67" class="f">bash-3.2$</text><text x="10.02" y="1.67" class="f">tmux-k</text></svg><svg x="640"><use xlink:href="#a"/><use xlink:href="#b" x="16.996"/><text y="1.67" class="f">bash-3.2$</text><text x="10.02" y="1.67" class="f">tmux-ki</text></svg><svg x="720"><use xlink:href="#a"/><use xlink:href="#b" x="17.996"/><text y="1.67" class="f">bash-3.2$</text><text x="10.02" y="1.67" class="f">tmux-kil</text></svg><svg x="800"><use xlink:href="#a"/><use xlink:href="#b" x="18.996"/><use xlink:href="#2"/></svg><svg x="880"><use xlink:href="#a"/><use xlink:href="#b" x="-.004" y="2.146"/><use xlink:href="#2"/></svg><svg x="960"><use xlink:href="#a"/><use xlink:href="#b" x="40.996" y="19.514"/><use xlink:href="#2"/><use xlink:href="#3" y="2.171"/><use xlink:href="#4" y="4.342"/><use xlink:href="#5" y="6.513"/><use xlink:href="#6" y="8.684"/><use xlink:href="#7" y="10.855"/><use xlink:href="#8" y="13.026"/><use xlink:href="#9" y="15.197"/><use xlink:href="#10" y="17.368"/><use xlink:href="#11" y="19.539"/></svg><svg x="1040"><use xlink:href="#a"/><use xlink:href="#b" x="-.004" y="19.514"/><use xlink:href="#2"/><use xlink:href="#3" y="2.171"/><use xlink:href="#4" y="4.342"/><use xlink:href="#5" y="6.513"/><use xlink:href="#6" y="8.684"/><use xlink:href="#7" y="10.855"/><use xlink:href="#8" y="13.026"/><use xlink:href="#9" y="15.197"/><use xlink:href="#10" y="17.368"/><use xlink:href="#11" y="19.539"/></svg><svg x="1120"><use xlink:href="#a"/><use xlink:href="#b" x="40.996" y="19.514"/><use xlink:href="#2"/><use xlink:href="#3" y="2.171"/><use xlink:href="#4" y="4.342"/><use xlink:href="#5" y="6.513"/><use xlink:href="#6" y="8.684"/><use xlink:href="#7" y="10.855"/><use xlink:href="#8" y="13.026"/><use xlink:href="#9" y="15.197"/><use xlink:href="#10" y="17.368"/><use xlink:href="#11" y="19.539"/></svg><svg x="1200"><use xlink:href="#a"/><use xlink:href="#b" x="-.004" y="2.146"/><use xlink:href="#2"/></svg><svg x="1280"><use xlink:href="#a"/><use xlink:href="#b" x="40.996" y="19.514"/><use xlink:href="#2"/><use xlink:href="#12" y="2.171"/><use xlink:href="#13" y="4.342"/><use xlink:href="#14" y="6.513"/><use xlink:href="#6" y="8.684"/><use xlink:href="#7" y="10.855"/><use xlink:href="#8" y="13.026"/><use xlink:href="#9" y="15.197"/><use xlink:href="#10" y="17.368"/><use xlink:href="#11" y="19.539"/></svg><svg x="1360"><use xlink:href="#a"/><use xlink:href="#b" x="40.996" y="19.514"/><use xlink:href="#2"/><use xlink:href="#12" y="2.171"/><use xlink:href="#13" y="4.342"/><use xlink:href="#14" y="6.513"/><use xlink:href="#6" y="8.684"/><use xlink:href="#7" y="10.855"/><use xlink:href="#8" y="13.026"/><use xlink:href="#9" y="15.197"/><use xlink:href="#10" y="17.368"/><use xlink:href="#11" y="19.539"/></svg><svg x="1440"><use xlink:href="#a"/><use xlink:href="#b" x="-.004" y="2.146"/><use xlink:href="#2"/></svg><svg x="1520"><use xlink:href="#a"/><use xlink:href="#b" x="-.004" y="19.514"/><use xlink:href="#2"/><use xlink:href="#12" y="2.171"/><use xlink:href="#13" y="4.342"/><use xlink:href="#5" y="6.513"/><use xlink:href="#15" y="8.684"/><use xlink:href="#7" y="10.855"/><use xlink:href="#8" y="13.026"/><use xlink:href="#9" y="15.197"/><use xlink:href="#10" y="17.368"/><use xlink:href="#11" y="19.539"/></svg><svg x="1600"><use xlink:href="#a"/><use xlink:href="#b" x="40.996" y="19.514"/><use xlink:href="#2"/><use xlink:href="#12" y="2.171"/><use xlink:href="#13" y="4.342"/><use xlink:href="#5" y="6.513"/><use xlink:href="#15" y="8.684"/><use xlink:href="#7" y="10.855"/><use xlink:href="#8" y="13.026"/><use xlink:href="#9" y="15.197"/><use xlink:href="#10" y="17.368"/><use xlink:href="#11" y="19.539"/></svg><svg x="1680"><use xlink:href="#a"/><use xlink:href="#b" x="-.004" y="2.146"/><use xlink:href="#2"/></svg><svg x="1760"><use xlink:href="#a"/><use xlink:href="#b" x="40.996" y="19.514"/><use xlink:href="#2"/><use xlink:href="#12" y="2.171"/><text x="2.004" y="6.012" class="f">urc:</text><text x="7.014" y="6.012" class="f">1</text><text x="9.018" y="6.012" class="f">windows</text><text x="17.034" y="6.012" class="f">(created</text><text x="26.052" y="6.012" class="f">Fri</text><text x="30.06" y="6.012" class="f">Nov</text><text x="35.07" y="6.012" class="f">2</text><text x="37.074" y="6.012" class="f">10:41:49</text><text x="46.092" y="6.012" class="f">2018)</text><text x="52.104" y="6.012" class="f">[130x34]</text><use xlink:href="#13" y="6.513"/><use xlink:href="#14" y="8.684"/><use xlink:href="#6" y="10.855"/><use xlink:href="#7" y="13.026"/><use xlink:href="#8" y="15.197"/><use xlink:href="#9" y="17.368"/><use xlink:href="#11" y="19.539"/></svg><svg x="1840"><use xlink:href="#a"/><use xlink:href="#b" x="-.004" y="2.146"/><use xlink:href="#2"/></svg><svg x="1920"><use xlink:href="#a"/><use xlink:href="#b" x="74.996" y="2.146"/><use xlink:href="#2"/><use xlink:href="#16" y="2.171"/></svg><svg x="2000"><use xlink:href="#a"/><use xlink:href="#b" x="-.004" y="2.146"/><use xlink:href="#2"/><use xlink:href="#16" y="2.171"/></svg><svg x="2080"><use xlink:href="#a"/><use xlink:href="#b" x="-.004" y="4.317"/><use xlink:href="#2"/><use xlink:href="#16" y="2.171"/></svg><svg x="2160"><use xlink:href="#a"/><use xlink:href="#b" x="9.996" y="4.317"/><use xlink:href="#2"/><use xlink:href="#16" y="2.171"/><use xlink:href="#1" y="4.342"/></svg><svg x="2240"><use xlink:href="#a"/><use xlink:href="#b" x="-.004" y="6.488"/><use xlink:href="#2"/><use xlink:href="#16" y="2.171"/><text y="6.012" class="f">bash-3.2$</text><text x="10.02" y="6.012" class="f">exit</text></svg></svg></g></g></svg></svg>